<svg xmlns="http://www.w3.org/2000/svg" version="1.1" xmlns:xlink="http://www.w3.org/1999/xlink" width="200" height="200"><svg xmlns="http://www.w3.org/2000/svg" version="1.1" xmlns:xlink="http://www.w3.org/1999/xlink" width="200" height="200"><svg xmlns="http://www.w3.org/2000/svg" version="1.1" xmlns:xlink="http://www.w3.org/1999/xlink" viewBox="0 0 200 200"><rect width="200" height="200" fill="url('#gradient')"></rect><defs><linearGradient id="gradient" gradientTransform="rotate(140 0.5 0.5)"><stop offset="0%" stop-color="#ffffff"></stop><stop offset="100%" stop-color="#fafafa"></stop></linearGradient></defs><g><g fill="#121414" transform="matrix(2.7097115639057954,0,0,2.7097115639057954,-2.572698268161055,108.79508414171335)" stroke="#000000" stroke-width="0"><path d="M0.95-10.57L4.03-10.57L4.14-9.33Q5.26-10.76 7.16-10.76L7.16-10.76Q9.16-10.76 9.86-9.17L9.86-9.17Q10.94-10.76 12.97-10.76L12.97-10.76Q16.18-10.76 16.27-6.88L16.27-6.88L16.27 0L12.97 0L12.97-6.67Q12.97-7.48 12.70-7.85Q12.42-8.22 11.70-8.22L11.70-8.22Q10.72-8.22 10.24-7.35L10.24-7.35L10.25-7.22L10.25 0L6.95 0L6.95-6.65Q6.95-7.48 6.69-7.85Q6.43-8.22 5.68-8.22L5.68-8.22Q4.74-8.22 4.24-7.35L4.24-7.35L4.24 0L0.95 0L0.95-10.57ZM23.26 0.20L23.26 0.20Q20.83 0.20 19.33-1.25Q17.82-2.71 17.82-5.03L17.82-5.03L17.82-5.30Q17.82-6.92 18.42-8.16Q19.02-9.40 20.18-10.08Q21.33-10.76 22.91-10.76L22.91-10.76Q25.14-10.76 26.43-9.38Q27.71-8.00 27.71-5.53L27.71-5.53L27.71-4.25L21.17-4.25Q21.35-3.36 21.94-2.85Q22.54-2.34 23.49-2.34L23.49-2.34Q25.05-2.34 25.93-3.44L25.93-3.44L27.43-1.66Q26.82-0.81 25.69-0.31Q24.56 0.20 23.26 0.20ZM22.89-8.22L22.89-8.22Q21.45-8.22 21.17-6.31L21.17-6.31L24.49-6.31L24.49-6.56Q24.51-7.35 24.09-7.79Q23.67-8.22 22.89-8.22ZM29.06-10.57L32.15-10.57L32.26-9.33Q33.38-10.76 35.27-10.76L35.27-10.76Q37.28-10.76 37.98-9.17L37.98-9.17Q39.05-10.76 41.08-10.76L41.08-10.76Q44.30-10.76 44.38-6.88L44.38-6.88L44.38 0L41.08 0L41.08-6.67Q41.08-7.48 40.81-7.85Q40.54-8.22 39.81-8.22L39.81-8.22Q38.84-8.22 38.36-7.35L38.36-7.35L38.37-7.22L38.37 0L35.07 0L35.07-6.65Q35.07-7.48 34.80-7.85Q34.54-8.22 33.80-8.22L33.80-8.22Q32.85-8.22 32.35-7.35L32.35-7.35L32.35 0L29.06 0L29.06-10.57ZM45.86-4.82L45.85-5.38Q45.85-6.96 46.46-8.20Q47.08-9.43 48.23-10.10Q49.38-10.76 50.94-10.76L50.94-10.76Q53.31-10.76 54.68-9.29Q56.04-7.82 56.04-5.29L56.04-5.29L56.04-5.18Q56.04-2.71 54.67-1.25Q53.30 0.20 50.96 0.20L50.96 0.20Q48.70 0.20 47.33-1.16Q45.97-2.51 45.86-4.82L45.86-4.82ZM49.15-5.77L49.14-5.18Q49.14-3.71 49.60-3.03Q50.06-2.34 50.96-2.34L50.96-2.34Q52.71-2.34 52.75-5.05L52.75-5.05L52.75-5.38Q52.75-8.22 50.94-8.22L50.94-8.22Q49.29-8.22 49.15-5.77L49.15-5.77ZM63.95-10.64L63.89-7.59L62.80-7.67Q61.25-7.67 60.81-6.69L60.81-6.69L60.81 0L57.52 0L57.52-10.57L60.61-10.57L60.71-9.21Q61.54-10.76 63.03-10.76L63.03-10.76Q63.55-10.76 63.95-10.64L63.95-10.64ZM67.80-10.57L69.47-4.61L71.23-10.57L74.76-10.57L70.45 1.77L70.26 2.22Q69.35 4.27 67.02 4.27L67.02 4.27Q66.38 4.27 65.66 4.07L65.66 4.07L65.66 1.72L66.09 1.72Q66.79 1.72 67.15 1.52Q67.52 1.32 67.70 0.80L67.70 0.80L67.96 0.10L64.29-10.57L67.80-10.57Z"></path></g></g></svg></svg><style>@media (prefers-color-scheme: light) { :root { filter: none; } }
@media (prefers-color-scheme: dark) { :root { filter: none; } }
</style></svg>